<svg id="ez4vmdBWQKZ1" xmlns="http://www.w3.org/2000/svg" xmlns:xlink="http://www.w3.org/1999/xlink" viewBox="0 0 235 170" shape-rendering="geometricPrecision" text-rendering="geometricPrecision"><polygon points="0,-67.875169 58.78162,-33.937584 58.78162,33.937584 0,67.875168 -58.78162,33.937584 -58.78162,-33.937584 0,-67.875169" transform="matrix(1 0.000184-.000184 1 117.553435 82.114037)" fill="#ecbe07" stroke="#000" stroke-width="8" stroke-linejoin="bevel"/><path d="M149.975069,169.317348q0-67.896758,93.918061-82.803353" transform="matrix(-1 0 0 1 262.434099-48.746025)" fill="none" stroke="#01040b" stroke-width="8" stroke-linecap="round"/><path d="M149.975069,169.317348q0-67.896758,93.918061-82.803353" transform="translate(-28.434099-48.746025)" fill="none" stroke="#01040b" stroke-width="8" stroke-linecap="round"/><path d="M150.000001,159.780091q58.756689,0,58.756687-58.868407" transform="translate(-33.434099-48.746025)" fill="none" stroke="#01040b" stroke-width="8" stroke-linecap="round"/><path d="M150.000001,159.780091q58.756689,0,58.756687-58.868407" transform="matrix(-1 0 0 1 268.322589-48.746025)" fill="none" stroke="#01040b" stroke-width="8" stroke-linecap="round"/><ellipse rx="10.827525" ry="10.827525" transform="matrix(.636141 0 0 0.636141 216.459031 37.76797)" fill="#ecbe07" stroke="#000" stroke-width="8"/><ellipse rx="10.827525" ry="10.827525" transform="matrix(.636141 0 0 0.636141 18.540969 37.76797)" fill="#ecbe07" stroke="#000" stroke-width="8"/><path d="M130.310734,191.519439v-27.739347" transform="translate(-32.4341-52.746025)" fill="none" stroke="#01040b" stroke-width="8"/><path d="M130.310734,191.519439v-27.739347" transform="translate(5.5659-52.746025)" fill="none" stroke="#000002" stroke-width="8"/></svg>
